<mxfile host="app.diagrams.net" modified="2023-03-25T11:31:28.920Z" agent="Mozilla/5.0 (Windows NT 10.0; Win64; x64) AppleWebKit/537.36 (KHTML, like Gecko) Chrome/111.0.0.0 Safari/537.36" version="21.1.0" etag="5d34FuNeeIh1Awd2qwO4" type="github">
  <diagram name="Page-1" id="7_4E7ZVMQ_uhjPQ3NrtN">
    <mxGraphModel>
      <root>
        <mxCell id="0" />
        <mxCell id="1" parent="0" />
      </root>
    </mxGraphModel>
  </diagram>
</mxfile>
